#!OML:ASF F:\VICON\USERDATA\INSTALL\rory3\rory3.ASF
:FULLY-SPECIFIED
:DEGREES
189
root -0.259777 18.2193 -25.4978 3.52841 2.26152 4.39913
lowerback 7.61067 1.59862 -7.45427
upperback 0.0027044 1.54173 1.64623
thorax -4.52413 0.949776 5.75386
lowerneck -15.3148 -5.64281 -14.9071
upperneck 24.92 -6.04387 7.7432
head 11.3582 -3.23691 4.4803
rclavicle 7.45443e-015 2.38542e-015
rhumerus -32.7781 -10.9712 -76.3089
rradius 36.0677
rwrist -17.5937
rhand -12.9747 20.273
rfingers 7.12502
rthumb 13.1176 -9.29443
lclavicle 7.45443e-015 2.38542e-015
lhumerus -34.7718 7.42872 80.0806
lradius 36.7427
lwrist -4.85465
lhand -0.402768 33.3133
lfingers 7.12502
lthumb 25.2045 61.6689
rfemur -19.8754 -7.87857 14.2081
rtibia 69.3268
rfoot -3.68994 -8.00046
rtoes 22.6028
lfemur -16.5698 -2.50947 -27.0582
ltibia 27.2344
lfoot -12.0422 -2.12424
ltoes 11.7058
190
root -0.257982 18.198 -25.407 3.84226 3.0393 4.57673
lowerback 7.83197 1.30292 -7.65411
upperback -0.125874 1.11061 1.69134
thorax -4.72254 0.753461 5.96638
lowerneck -15.4298 -5.67331 -14.9476
upperneck 24.8649 -6.0522 7.73009
head 11.3628 -3.24262 4.47774
rclavicle 2.52457e-014 -4.77083e-015
rhumerus -32.8688 -10.7365 -76.32
rradius 36.4347
rwrist -17.6973
rhand -12.7844 20.2975
rfingers 7.12502
rthumb 13.3011 -9.258
lclavicle 2.52457e-014 -4.77083e-015
lhumerus -34.5284 6.788 80.3125
lradius 37.2934
lwrist -4.38414
lhand -0.559754 33.0497
lfingers 7.12502
lthumb 25.0541 61.4264
rfemur -21.5231 -8.59998 14.2921
rtibia 69.2563
rfoot -4.66947 -7.86883
rtoes 22.0317
lfemur -16.8315 -2.95878 -27.3108
ltibia 27.6883
lfoot -12.2732 -2.31019
ltoes 11.5315
191
root -0.230972 18.1771 -25.2672 3.63519 2.56476 4.698
lowerback 7.92788 1.39643 -7.66219
upperback -0.0520633 1.22729 1.65834
thorax -4.71694 0.808289 5.92064
lowerneck -15.5158 -5.70549 -15.0783
upperneck 24.8601 -6.06615 7.79316
head 11.3875 -3.25237 4.5201
rclavicle -1.2921e-014 3.18055e-015
rhumerus -33.2116 -10.3748 -76.3591
rradius 36.9725
rwrist -17.8567
rhand -12.7336 19.9347
rfingers 7.12502
rthumb 13.35 -9.61763
lclavicle -1.2921e-014 3.18055e-015
lhumerus -34.3278 6.33024 80.3985
lradius 37.5878
lwrist -4.25737
lhand -0.631704 32.5034
lfingers 7.12502
lthumb 24.9852 60.8897
rfemur -22.5877 -8.21688 14.1548
rtibia 68.93
rfoot -5.80303 -7.6519
rtoes 21.5527
lfemur -16.2978 -3.16819 -27.6429
ltibia 28.1611
lfoot -12.7702 -1.22799
ltoes 11.5837
192
root -0.212338 18.153 -25.1333 3.52062 2.2494 4.89884
lowerback 7.95163 1.45886 -7.82573
upperback 0.0670658 1.29499 1.62068
thorax -4.61859 0.83716 5.96564
lowerneck -15.7121 -5.72666 -15.1788
upperneck 24.8739 -6.05825 7.86905
head 11.4371 -3.24587 4.56507
rclavicle 6.65929e-015 -2.8625e-014
rhumerus -33.2575 -10.0896 -76.4354
rradius 37.3134
rwrist -17.8949
rhand -12.9349 19.7519
rfingers 7.12502
rthumb 13.156 -9.81308
lclavicle 6.65929e-015 -2.8625e-014
lhumerus -33.9496 6.11196 80.4504
lradius 37.8059
lwrist -4.37003
lhand -0.755921 32.4281
lfingers 7.12502
lthumb 24.8661 60.8309
rfemur -23.713 -7.90737 14.0016
rtibia 68.445
rfoot -6.7589 -7.52512
rtoes 21.0996
lfemur -15.9164 -3.42142 -28.0159
ltibia 28.65
lfoot -13.0894 -0.111676
ltoes 11.4503
193
root -0.198125 18.1315 -25.0047 3.45222 2.08186 4.98431
lowerback 7.90764 1.49817 -7.92196
upperback 0.193202 1.34613 1.62527
thorax -4.47148 0.854418 6.0202
lowerneck -15.8574 -5.70163 -15.1362
upperneck 24.7927 -6.02475 7.93118
head 11.4298 -3.21465 4.58327
rclavicle 1.32192e-014 1.43125e-014
rhumerus -33.0789 -9.93917 -76.4688
rradius 37.3794
rwrist -17.8426
rhand -13.0749 19.7336
rfingers 7.12502
rthumb 13.021 -9.84006
lclavicle 1.32192e-014 1.43125e-014
lhumerus -33.7952 5.59395 80.598
lradius 38.4831
lwrist -4.12789
lhand -0.841084 32.6575
lfingers 7.12502
lthumb 24.7845 61.0716
rfemur -24.7898 -7.64883 14.0225
rtibia 67.7345
rfoot -6.93824 -7.38393
rtoes 18.3166
lfemur -15.6239 -3.70667 -28.2389
ltibia 29.0976
lfoot -13.6509 0.691621
ltoes 10.0006
194
root -0.184899 18.1123 -24.8815 3.46623 1.93442 4.95419
lowerback 7.98194 1.49884 -7.89851
upperback 0.173018 1.34392 1.6591
thorax -4.5346 0.856517 6.04227
lowerneck -15.896 -5.6605 -15.0352
upperneck 24.7236 -5.97471 7.89105
head 11.3986 -3.18506 4.55668
rclavicle 8.74653e-015 6.36111e-015
rhumerus -33.0156 -9.82192 -76.4636
rradius 37.3408
rwrist -17.7479
rhand -12.8481 19.8266
rfingers 7.12502
rthumb 13.2396 -9.73291
lclavicle 8.74653e-015 6.36111e-015
lhumerus -33.8484 4.88054 80.7361
lradius 39.2862
lwrist -3.71961
lhand -0.894983 32.5235
lfingers 7.12502
lthumb 24.7329 60.9446
rfemur -25.9269 -7.38876 14.1803
rtibia 66.8735
rfoot -8.24632 -7.56385
rtoes 20.5594
lfemur -15.3793 -3.92305 -28.3119
ltibia 29.5297
lfoot -14.4532 1.15626
ltoes 9.44141
195
root -0.178502 18.0895 -24.7631 3.47422 1.84351 5.04232
lowerback 8.13954 1.48553 -8.07823
upperback 0.101325 1.29533 1.68796
thorax -4.69662 0.846104 6.1801
lowerneck -15.6002 -5.57057 -14.9263
upperneck 24.5269 -5.88369 7.77099
head 11.2452 -3.14941 4.50524
rclavicle -2.0773e-014 2.14687e-014
rhumerus -33.0478 -9.74801 -76.4099
rradius 37.1766
rwrist -17.6167
rhand -12.491 20.0192
rfingers 7.12502
rthumb 13.5838 -9.51761
lclavicle -2.0773e-014 2.14687e-014
lhumerus -33.9114 4.31992 80.8363
lradius 39.8979
lwrist -3.52595
lhand -1.07894 31.8764
lfingers 7.12502
lthumb 24.5565 60.3216
rfemur -27.0487 -7.11276 14.2029
rtibia 65.8898
rfoot -9.03036 -7.71688
rtoes 21.2119
lfemur -15.0881 -4.05249 -28.467
ltibia 29.8913
lfoot -15.0663 1.3989
ltoes 9.91265
196
root -0.181157 18.0632 -24.6484 3.47793 1.75193 5.22639
lowerback 8.24652 1.51498 -8.47304
upperback 0.0403268 1.28637 1.70322
thorax -4.83075 0.859192 6.42226
lowerneck -15.1345 -5.52844 -14.8742
upperneck 24.2447 -5.89939 7.76214
head 11.0469 -3.15598 4.48909
rclavicle -8.34896e-015 5.56597e-015
rhumerus -33.3003 -9.64721 -76.3687
rradius 37.2526
rwrist -17.5125
rhand -12.2817 20.0308
rfingers 7.12502
rthumb 13.7855 -9.4925
lclavicle -8.34896e-015 5.56597e-015
lhumerus -33.9359 3.7678 80.9312
lradius 40.3329
lwrist -3.34194
lhand -1.09112 31.5548
lfingers 7.12502
lthumb 24.5449 60.0016
rfemur -28.1821 -6.7328 14.1535
rtibia 64.7826
rfoot -9.6849 -8.07908
rtoes 21.1667
lfemur -14.8408 -4.01555 -28.6831
ltibia 30.1854
lfoot -15.4762 1.46151
ltoes 9.6669
197
root -0.172687 18.0384 -24.5138 3.40567 1.75979 5.4069
lowerback 8.20897 1.47574 -8.68309
upperback 0.141815 1.21967 1.6808
thorax -4.69475 0.820987 6.52792
lowerneck -15.1387 -5.62856 -14.9135
upperneck 24.1241 -6.04421 7.82695
head 11.0256 -3.21549 4.49468
rclavicle -8.34896e-015 -7.95139e-016
rhumerus -33.4289 -9.70527 -76.3083
rradius 37.7429
rwrist -16.5748
rhand -11.9956 18.7947
rfingers 7.12502
rthumb 14.0612 -10.7096
lclavicle -8.34896e-015 -7.95139e-016
lhumerus -33.6974 3.28376 80.9791
lradius 40.588
lwrist -3.13231
lhand -1.04785 31.5991
lfingers 7.12502
lthumb 24.5863 60.0403
rfemur -28.995 -6.63212 14.0094
rtibia 63.4736
rfoot -10.5939 -8.1596
rtoes 18.9849
lfemur -14.3379 -3.96231 -28.9688
ltibia 30.3628
lfoot -15.9897 1.47934
ltoes 9.0056
198
root -0.164 18.0184 -24.3864 3.43594 1.85347 5.52099
lowerback 8.3512 1.38648 -8.78171
upperback 0.168469 1.07897 1.67988
thorax -4.7236 0.753877 6.60078
lowerneck -15.4419 -5.65382 -14.9487
upperneck 24.2124 -6.03851 7.87221
head 11.1201 -3.20683 4.51695
rclavicle -3.27995e-015 -2.8625e-014
rhumerus -33.3036 -9.61845 -76.3781
rradius 37.5201
rwrist -16.739
rhand -12.3105 19.2568
rfingers 7.12502
rthumb 13.7577 -10.2683
lclavicle -3.27995e-015 -2.8625e-014
lhumerus -33.5401 2.87365 81.0054
lradius 40.9314
lwrist -2.96376
lhand -0.859589 32.8281
lfingers 7.12502
lthumb 24.7668 61.2445
rfemur -29.8688 -6.49878 13.9345
rtibia 61.9791
rfoot -11.5427 -8.24435
rtoes 18.0689
lfemur -13.8941 -4.03765 -29.155
ltibia 30.4316
lfoot -16.4752 1.55868
ltoes 8.35078
199
root -0.155567 18.0024 -24.257 3.49851 1.77187 5.68487
lowerback 8.3989 1.35691 -8.9456
upperback 0.121606 1.01605 1.65061
thorax -4.79177 0.731072 6.67111
lowerneck -15.3872 -5.54914 -14.9633
upperneck 24.1389 -5.92792 8.0053
head 11.0705 -3.14245 4.58589
rclavicle -1.04362e-014 -1.90833e-014
rhumerus -33.3332 -9.54372 -76.4067
rradius 37.1944
rwrist -16.8923
rhand -12.4629 19.848
rfingers 7.12502
rthumb 13.6109 -9.68705
lclavicle -1.04362e-014 -1.90833e-014
lhumerus -33.5747 2.38548 81.0338
lradius 41.3958
lwrist -2.79656
lhand -0.701494 34.0608
lfingers 7.12502
lthumb 24.9183 62.4564
rfemur -30.7221 -6.20707 13.7772
rtibia 60.2906
rfoot -12.1981 -9.14173
rtoes 18.7325
lfemur -13.4368 -3.99172 -29.4047
ltibia 30.3803
lfoot -16.857 1.7349
ltoes 7.40425
200
root -0.152226 17.99 -24.1253 3.53471 1.63934 5.91996
lowerback 8.28347 1.35344 -9.24513
upperback 0.181284 0.993875 1.60955
thorax -4.66453 0.718113 6.80218
lowerneck -15.3524 -5.50906 -14.9493
upperneck 23.9397 -5.89164 8.07768
head 10.9852 -3.11298 4.61175
rclavicle -5.26779e-015 -4.77083e-015
rhumerus -33.3032 -9.56627 -76.392
rradius 37.0439
rwrist -16.7178
rhand -12.3612 20.0995
rfingers 7.12502
rthumb 13.709 -9.42899
lclavicle -5.26779e-015 -4.77083e-015
lhumerus -33.4421 1.80876 81.0902
lradius 41.8781
lwrist -2.55426
lhand -1.21102 32.8948
lfingers 7.12502
lthumb 24.4299 61.3571
rfemur -31.4668 -5.9225 13.5981
rtibia 58.4397
rfoot -12.6041 -10.4765
rtoes 17.3739
lfemur -12.9024 -3.821 -29.7049
ltibia 30.2325
lfoot -17.1854 1.7787
ltoes 7.12977
